<svg width="301" height="110" viewBox="0 0 301 110" fill="none" xmlns="http://www.w3.org/2000/svg">
<path d="M14.3125 48.625C12 48.625 9.88542 48.0417 7.96875 46.875C6.07292 45.7083 4.5625 44.1458 3.4375 42.1875C2.33333 40.2083 1.78125 38.0104 1.78125 35.5938L1.84375 15.625C1.84375 13.25 2.38542 11.1042 3.46875 9.1875C4.55208 7.25 6.04167 5.69792 7.9375 4.53125C9.85417 3.34375 11.9792 2.75 14.3125 2.75C16.6875 2.75 18.8021 3.32292 20.6562 4.46875C22.5312 5.61458 24.0208 7.16667 25.125 9.125C26.25 11.0625 26.8125 13.2292 26.8125 15.625V18.5625C26.8125 18.7292 26.7292 18.8125 26.5625 18.8125H19.375C19.2083 18.8125 19.125 18.7292 19.125 18.5625V15.625C19.125 14.2083 18.6667 12.9896 17.75 11.9688C16.8333 10.9479 15.6875 10.4375 14.3125 10.4375C12.7917 10.4375 11.625 10.9583 10.8125 12C10 13.0417 9.59375 14.25 9.59375 15.625V35.5938C9.59375 37.1562 10.0521 38.4375 10.9688 39.4375C11.8854 40.4167 13 40.9062 14.3125 40.9062C15.6875 40.9062 16.8333 40.3646 17.75 39.2812C18.6667 38.1771 19.125 36.9479 19.125 35.5938V32.625C19.125 32.4583 19.2083 32.375 19.375 32.375H26.625C26.7917 32.375 26.875 32.4583 26.875 32.625V35.5938C26.875 37.9896 26.3125 40.1771 25.1875 42.1562C24.0417 44.1146 22.5312 45.6875 20.6562 46.875C18.7812 48.0417 16.6667 48.625 14.3125 48.625ZM39.0312 48H31.7812C31.6146 48 31.5312 47.8958 31.5312 47.6875L31.6562 3.71875C31.6562 3.55208 31.7396 3.46875 31.9062 3.46875H44.8438C47.1562 3.46875 49.2812 4.03125 51.2188 5.15625C53.1562 6.28125 54.6979 7.79167 55.8438 9.6875C57.0104 11.5833 57.5938 13.7292 57.5938 16.125C57.5938 17.6875 57.3542 19.1042 56.875 20.375C56.3958 21.6458 55.8333 22.7188 55.1875 23.5938C54.5625 24.4688 53.9896 25.1146 53.4688 25.5312C55.7812 28.0938 56.9375 31.1042 56.9375 34.5625L57 47.6875C57 47.8958 56.8958 48 56.6875 48H49.4375C49.2708 48 49.1875 47.9375 49.1875 47.8125V34.5625C49.1875 33.0208 48.6458 31.6875 47.5625 30.5625C46.4792 29.4375 45.1458 28.875 43.5625 28.875H39.3438L39.2812 47.6875C39.2812 47.8958 39.1979 48 39.0312 48ZM44.8438 11.125H39.3438V21.1875H44.8438C46.1562 21.1875 47.3229 20.6979 48.3438 19.7188C49.3854 18.7396 49.9062 17.5417 49.9062 16.125C49.9062 14.7708 49.4062 13.6042 48.4062 12.625C47.4062 11.625 46.2188 11.125 44.8438 11.125ZM60.25 47.6875L68.1875 3.71875C68.2292 3.55208 68.3333 3.46875 68.5 3.46875H77.7812C77.9479 3.46875 78.0521 3.55208 78.0938 3.71875L85.7188 47.6875C85.7396 47.8958 85.6562 48 85.4688 48H78.375C78.1667 48 78.0521 47.8958 78.0312 47.6875L77.3438 43H68.625L67.9375 47.6875C67.9167 47.8958 67.8125 48 67.625 48H60.5C60.3333 48 60.25 47.8958 60.25 47.6875ZM72.7812 18.1875L69.9062 36.1562H76.0625L73.4375 18.1875L73.0625 15.8125L72.7812 18.1875ZM101.438 48H89.9688C89.8021 48 89.7188 47.8958 89.7188 47.6875L89.8438 3.71875C89.8438 3.55208 89.9271 3.46875 90.0938 3.46875H102.406C104.802 3.46875 106.979 4.05208 108.938 5.21875C110.854 6.38542 112.365 7.9375 113.469 9.875C114.573 11.7917 115.125 13.875 115.125 16.125C115.125 17.9583 114.708 19.6667 113.875 21.25C113.042 22.8333 112.052 24.1146 110.906 25.0938C112.135 26.3229 113.094 27.75 113.781 29.375C114.469 31 114.812 32.7083 114.812 34.5C114.812 36.9792 114.219 39.2396 113.031 41.2812C111.823 43.3229 110.208 44.9583 108.188 46.1875C106.167 47.3958 103.917 48 101.438 48ZM102.406 11.0625H97.5312V21.125H102.406C103.885 21.125 105.083 20.6042 106 19.5625C106.917 18.5 107.375 17.3542 107.375 16.125C107.375 14.7708 106.885 13.5938 105.906 12.5938C104.927 11.5729 103.76 11.0625 102.406 11.0625ZM101.438 28.875H97.5312L97.4688 40.1875H101.438C102.979 40.1875 104.302 39.625 105.406 38.5C106.51 37.375 107.062 36.0417 107.062 34.5C107.062 32.9583 106.51 31.6354 105.406 30.5312C104.302 29.4271 102.979 28.875 101.438 28.875ZM14.3125 103.625C12 103.625 9.88542 103.042 7.96875 101.875C6.07292 100.708 4.5625 99.1458 3.4375 97.1875C2.33333 95.2083 1.78125 93.0104 1.78125 90.5938L1.84375 70.625C1.84375 68.25 2.38542 66.1042 3.46875 64.1875C4.55208 62.25 6.04167 60.6979 7.9375 59.5312C9.85417 58.3438 11.9792 57.75 14.3125 57.75C16.6875 57.75 18.8021 58.3229 20.6562 59.4688C22.5312 60.6146 24.0208 62.1667 25.125 64.125C26.25 66.0625 26.8125 68.2292 26.8125 70.625V73.5625C26.8125 73.7292 26.7292 73.8125 26.5625 73.8125H19.375C19.2083 73.8125 19.125 73.7292 19.125 73.5625V70.625C19.125 69.2083 18.6667 67.9896 17.75 66.9688C16.8333 65.9479 15.6875 65.4375 14.3125 65.4375C12.7917 65.4375 11.625 65.9583 10.8125 67C10 68.0417 9.59375 69.25 9.59375 70.625V90.5938C9.59375 92.1562 10.0521 93.4375 10.9688 94.4375C11.8854 95.4167 13 95.9062 14.3125 95.9062C15.6875 95.9062 16.8333 95.3646 17.75 94.2812C18.6667 93.1771 19.125 91.9479 19.125 90.5938V87.625C19.125 87.4583 19.2083 87.375 19.375 87.375H26.625C26.7917 87.375 26.875 87.4583 26.875 87.625V90.5938C26.875 92.9896 26.3125 95.1771 25.1875 97.1562C24.0417 99.1146 22.5312 100.688 20.6562 101.875C18.7812 103.042 16.6667 103.625 14.3125 103.625ZM43.375 103.625C41.1042 103.625 39.0104 103.042 37.0938 101.875C35.1979 100.708 33.6667 99.1562 32.5 97.2188C31.3542 95.2604 30.7812 93.1146 30.7812 90.7812L30.8438 70.5C30.8438 68.125 31.4167 65.9896 32.5625 64.0938C33.6875 62.1771 35.2083 60.6458 37.125 59.5C39.0417 58.3333 41.125 57.75 43.375 57.75C45.7083 57.75 47.8021 58.3229 49.6562 59.4688C51.5312 60.6146 53.0312 62.1562 54.1562 64.0938C55.3021 66.0104 55.875 68.1458 55.875 70.5L55.9375 90.7812C55.9375 93.1146 55.375 95.25 54.25 97.1875C53.1042 99.1458 51.5833 100.708 49.6875 101.875C47.7917 103.042 45.6875 103.625 43.375 103.625ZM43.375 95.9062C44.6667 95.9062 45.7917 95.3854 46.75 94.3438C47.7083 93.2812 48.1875 92.0938 48.1875 90.7812L48.125 70.5C48.125 69.0833 47.6771 67.8854 46.7812 66.9062C45.8854 65.9271 44.75 65.4375 43.375 65.4375C42.0625 65.4375 40.9375 65.9167 40 66.875C39.0625 67.8333 38.5938 69.0417 38.5938 70.5V90.7812C38.5938 92.1771 39.0625 93.3854 40 94.4062C40.9375 95.4062 42.0625 95.9062 43.375 95.9062ZM72.5625 102.938L61.0938 103C60.8854 103 60.7812 102.896 60.7812 102.688L60.9062 58.7188C60.9062 58.5521 60.9896 58.4688 61.1562 58.4688L73.125 58.4062C75.5 58.3438 77.6458 58.8854 79.5625 60.0312C81.5 61.1771 83.0417 62.7292 84.1875 64.6875C85.3542 66.625 85.9375 68.7708 85.9375 71.125V89.5C85.9375 91.9583 85.3438 94.2083 84.1562 96.25C82.9479 98.2708 81.3438 99.8854 79.3438 101.094C77.3438 102.281 75.0833 102.896 72.5625 102.938ZM73.125 66.0625L68.6562 66.125L68.5938 95.125H72.5625C74.1458 95.125 75.4792 94.5729 76.5625 93.4688C77.6458 92.3646 78.1875 91.0417 78.1875 89.5V71.0625C78.1875 69.7083 77.6875 68.5312 76.6875 67.5312C75.6875 66.5104 74.5 66.0208 73.125 66.0625ZM111.906 103H91.2188C91.0521 103 90.9688 102.896 90.9688 102.688L91.0312 58.7188C91.0312 58.5521 91.1146 58.4688 91.2812 58.4688H111.844C112.01 58.4688 112.094 58.5729 112.094 58.7812V65.9375C112.094 66.1042 112.01 66.1875 111.844 66.1875H98.7188V76.1875H111.844C112.01 76.1875 112.094 76.2708 112.094 76.4375L112.156 83.6875C112.156 83.8542 112.073 83.9375 111.906 83.9375H98.7188V95.125H111.906C112.073 95.125 112.156 95.2292 112.156 95.4375V102.75C112.156 102.917 112.073 103 111.906 103ZM128.719 103.625C126.448 103.625 124.354 103.042 122.438 101.875C120.542 100.708 119.021 99.1562 117.875 97.2188C116.75 95.2604 116.188 93.1146 116.188 90.7812V87.8438C116.188 87.6146 116.292 87.5 116.5 87.5H123.688C123.854 87.5 123.938 87.6146 123.938 87.8438V90.7812C123.938 92.1771 124.406 93.3854 125.344 94.4062C126.281 95.4062 127.406 95.9062 128.719 95.9062C130.052 95.9062 131.188 95.3958 132.125 94.375C133.062 93.3333 133.531 92.1354 133.531 90.7812C133.531 89.2188 132.51 87.8542 130.469 86.6875C130.135 86.4792 129.698 86.2292 129.156 85.9375C128.635 85.625 128.01 85.2708 127.281 84.875C126.552 84.4792 125.844 84.0938 125.156 83.7188C124.469 83.3229 123.802 82.9479 123.156 82.5938C120.823 81.2188 119.083 79.5 117.938 77.4375C116.812 75.3542 116.25 73.0208 116.25 70.4375C116.25 68.0625 116.833 65.9167 118 64C119.167 62.1042 120.688 60.6042 122.562 59.5C124.458 58.375 126.51 57.8125 128.719 57.8125C130.99 57.8125 133.073 58.375 134.969 59.5C136.865 60.6458 138.375 62.1667 139.5 64.0625C140.646 65.9583 141.219 68.0833 141.219 70.4375V75.6875C141.219 75.8542 141.135 75.9375 140.969 75.9375H133.781C133.615 75.9375 133.531 75.8542 133.531 75.6875L133.469 70.4375C133.469 68.9375 133 67.7188 132.062 66.7812C131.125 65.8438 130.01 65.375 128.719 65.375C127.406 65.375 126.281 65.875 125.344 66.875C124.406 67.875 123.938 69.0625 123.938 70.4375C123.938 71.8333 124.229 73 124.812 73.9375C125.417 74.875 126.51 75.7708 128.094 76.625C128.26 76.7083 128.646 76.9167 129.25 77.25C129.854 77.5833 130.521 77.9583 131.25 78.375C132 78.7708 132.677 79.1354 133.281 79.4688C133.885 79.7812 134.25 79.9688 134.375 80.0312C136.5 81.2188 138.177 82.6771 139.406 84.4062C140.656 86.1354 141.281 88.2604 141.281 90.7812C141.281 93.2188 140.719 95.4062 139.594 97.3438C138.448 99.2812 136.927 100.812 135.031 101.938C133.135 103.062 131.031 103.625 128.719 103.625Z" fill="white"/>
<path d="M209.865 5.63869C209.865 8.75285 207.483 14.6606 204.543 14.6606C201.604 14.6606 199.222 8.75285 199.222 5.63869C199.222 2.52453 201.604 0 204.543 0C207.483 0 209.865 2.52453 209.865 5.63869Z" fill="white"/>
<path d="M248.448 5.63869C248.448 8.75285 246.065 14.6606 243.126 14.6606C240.187 14.6606 237.804 8.75285 237.804 5.63869C237.804 2.52453 240.187 0 243.126 0C246.065 0 248.448 2.52453 248.448 5.63869Z" fill="white"/>
<path d="M272.894 82.4128C268.723 82.4751 264.704 80.8595 261.719 77.9213C258.735 74.983 257.03 70.9629 256.981 66.7453C256.931 62.5276 258.54 58.4579 261.455 55.4315C264.369 52.4051 268.349 50.6698 272.52 50.6075L272.707 66.5101L272.894 82.4128Z" fill="white"/>
<path d="M182.492 48.9479C186.697 48.9413 190.732 50.6755 193.709 53.7689C196.685 56.8624 198.361 61.0618 198.366 65.4432C198.371 69.8246 196.706 74.0292 193.737 77.132C190.767 80.2348 186.736 81.9817 182.532 81.9883L182.512 65.4681L182.492 48.9479Z" fill="white"/>
<path d="M179.334 102.973C176.144 102.976 172.986 102.281 170.038 100.925C167.09 99.5696 164.411 97.5809 162.153 95.0727C159.896 92.5645 158.104 89.5858 156.881 86.3067C155.657 83.0276 155.026 79.5123 155.023 75.9616C155.02 72.4108 155.645 68.8941 156.863 65.6123C158.081 62.3305 159.867 59.3478 162.121 56.8345C164.374 54.3212 167.049 52.3266 169.995 50.9645C172.941 49.6023 176.098 48.8994 179.288 48.8959L179.311 75.9343L179.334 102.973Z" fill="white"/>
<path d="M276.118 50.6841C279.314 50.6431 282.487 51.2751 285.454 52.544C288.421 53.8129 291.124 55.6939 293.41 58.0794C295.696 60.465 297.518 63.3085 298.774 66.4475C300.031 69.5866 300.695 72.9597 300.731 76.3743C300.766 79.789 300.171 83.1782 298.981 86.3486C297.79 89.519 296.027 92.4084 293.791 94.8519C291.556 97.2954 288.892 99.245 285.952 100.59C283.012 101.934 279.853 102.647 276.657 102.688L276.387 76.6861L276.118 50.6841Z" fill="white"/>
<path d="M263.748 38.719C263.748 58.8572 246.325 75.1825 224.833 75.1825C203.34 75.1825 185.917 58.8572 185.917 38.719C185.917 18.5807 203.34 14.2847 224.833 14.2847C246.325 14.2847 263.748 18.5807 263.748 38.719Z" fill="white"/>
</svg>
