<svg width="125" height="43" viewBox="0 0 125 43" fill="none" xmlns="http://www.w3.org/2000/svg">
<path d="M5.36719 21.2344C4.5 21.2344 3.70703 21.0156 2.98828 20.5781C2.27734 20.1406 1.71094 19.5547 1.28906 18.8203C0.875 18.0781 0.667969 17.2539 0.667969 16.3477L0.691406 8.85938C0.691406 7.96875 0.894531 7.16406 1.30078 6.44531C1.70703 5.71875 2.26562 5.13672 2.97656 4.69922C3.69531 4.25391 4.49219 4.03125 5.36719 4.03125C6.25781 4.03125 7.05078 4.24609 7.74609 4.67578C8.44922 5.10547 9.00781 5.6875 9.42188 6.42188C9.84375 7.14844 10.0547 7.96094 10.0547 8.85938V9.96094C10.0547 10.0234 10.0234 10.0547 9.96094 10.0547H7.26562C7.20312 10.0547 7.17188 10.0234 7.17188 9.96094V8.85938C7.17188 8.32812 7 7.87109 6.65625 7.48828C6.3125 7.10547 5.88281 6.91406 5.36719 6.91406C4.79688 6.91406 4.35938 7.10938 4.05469 7.5C3.75 7.89062 3.59766 8.34375 3.59766 8.85938V16.3477C3.59766 16.9336 3.76953 17.4141 4.11328 17.7891C4.45703 18.1562 4.875 18.3398 5.36719 18.3398C5.88281 18.3398 6.3125 18.1367 6.65625 17.7305C7 17.3164 7.17188 16.8555 7.17188 16.3477V15.2344C7.17188 15.1719 7.20312 15.1406 7.26562 15.1406H9.98438C10.0469 15.1406 10.0781 15.1719 10.0781 15.2344V16.3477C10.0781 17.2461 9.86719 18.0664 9.44531 18.8086C9.01562 19.543 8.44922 20.1328 7.74609 20.5781C7.04297 21.0156 6.25 21.2344 5.36719 21.2344ZM14.6367 21H11.918C11.8555 21 11.8242 20.9609 11.8242 20.8828L11.8711 4.39453C11.8711 4.33203 11.9023 4.30078 11.9648 4.30078H16.8164C17.6836 4.30078 18.4805 4.51172 19.207 4.93359C19.9336 5.35547 20.5117 5.92187 20.9414 6.63281C21.3789 7.34375 21.5977 8.14844 21.5977 9.04688C21.5977 9.63281 21.5078 10.1641 21.3281 10.6406C21.1484 11.1172 20.9375 11.5195 20.6953 11.8477C20.4609 12.1758 20.2461 12.418 20.0508 12.5742C20.918 13.5352 21.3516 14.6641 21.3516 15.9609L21.375 20.8828C21.375 20.9609 21.3359 21 21.2578 21H18.5391C18.4766 21 18.4453 20.9766 18.4453 20.9297V15.9609C18.4453 15.3828 18.2422 14.8828 17.8359 14.4609C17.4297 14.0391 16.9297 13.8281 16.3359 13.8281H14.7539L14.7305 20.8828C14.7305 20.9609 14.6992 21 14.6367 21ZM16.8164 7.17188H14.7539V10.9453H16.8164C17.3086 10.9453 17.7461 10.7617 18.1289 10.3945C18.5195 10.0273 18.7148 9.57812 18.7148 9.04688C18.7148 8.53906 18.5273 8.10156 18.1523 7.73438C17.7773 7.35938 17.332 7.17188 16.8164 7.17188ZM22.5938 20.8828L25.5703 4.39453C25.5859 4.33203 25.625 4.30078 25.6875 4.30078H29.168C29.2305 4.30078 29.2695 4.33203 29.2852 4.39453L32.1445 20.8828C32.1523 20.9609 32.1211 21 32.0508 21H29.3906C29.3125 21 29.2695 20.9609 29.2617 20.8828L29.0039 19.125H25.7344L25.4766 20.8828C25.4688 20.9609 25.4297 21 25.3594 21H22.6875C22.625 21 22.5938 20.9609 22.5938 20.8828ZM27.293 9.82031L26.2148 16.5586H28.5234L27.5391 9.82031L27.3984 8.92969L27.293 9.82031ZM38.0391 21H33.7383C33.6758 21 33.6445 20.9609 33.6445 20.8828L33.6914 4.39453C33.6914 4.33203 33.7227 4.30078 33.7852 4.30078H38.4023C39.3008 4.30078 40.1172 4.51953 40.8516 4.95703C41.5703 5.39453 42.1367 5.97656 42.5508 6.70312C42.9648 7.42187 43.1719 8.20312 43.1719 9.04688C43.1719 9.73438 43.0156 10.375 42.7031 10.9688C42.3906 11.5625 42.0195 12.043 41.5898 12.4102C42.0508 12.8711 42.4102 13.4062 42.668 14.0156C42.9258 14.625 43.0547 15.2656 43.0547 15.9375C43.0547 16.8672 42.832 17.7148 42.3867 18.4805C41.9336 19.2461 41.3281 19.8594 40.5703 20.3203C39.8125 20.7734 38.9688 21 38.0391 21ZM38.4023 7.14844H36.5742V10.9219H38.4023C38.957 10.9219 39.4062 10.7266 39.75 10.3359C40.0938 9.9375 40.2656 9.50781 40.2656 9.04688C40.2656 8.53906 40.082 8.09766 39.7148 7.72266C39.3477 7.33984 38.9102 7.14844 38.4023 7.14844ZM38.0391 13.8281H36.5742L36.5508 18.0703H38.0391C38.6172 18.0703 39.1133 17.8594 39.5273 17.4375C39.9414 17.0156 40.1484 16.5156 40.1484 15.9375C40.1484 15.3594 39.9414 14.8633 39.5273 14.4492C39.1133 14.0352 38.6172 13.8281 38.0391 13.8281ZM5.36719 41.2344C4.5 41.2344 3.70703 41.0156 2.98828 40.5781C2.27734 40.1406 1.71094 39.5547 1.28906 38.8203C0.875 38.0781 0.667969 37.2539 0.667969 36.3477L0.691406 28.8594C0.691406 27.9688 0.894531 27.1641 1.30078 26.4453C1.70703 25.7188 2.26562 25.1367 2.97656 24.6992C3.69531 24.2539 4.49219 24.0312 5.36719 24.0312C6.25781 24.0312 7.05078 24.2461 7.74609 24.6758C8.44922 25.1055 9.00781 25.6875 9.42188 26.4219C9.84375 27.1484 10.0547 27.9609 10.0547 28.8594V29.9609C10.0547 30.0234 10.0234 30.0547 9.96094 30.0547H7.26562C7.20312 30.0547 7.17188 30.0234 7.17188 29.9609V28.8594C7.17188 28.3281 7 27.8711 6.65625 27.4883C6.3125 27.1055 5.88281 26.9141 5.36719 26.9141C4.79688 26.9141 4.35938 27.1094 4.05469 27.5C3.75 27.8906 3.59766 28.3438 3.59766 28.8594V36.3477C3.59766 36.9336 3.76953 37.4141 4.11328 37.7891C4.45703 38.1562 4.875 38.3398 5.36719 38.3398C5.88281 38.3398 6.3125 38.1367 6.65625 37.7305C7 37.3164 7.17188 36.8555 7.17188 36.3477V35.2344C7.17188 35.1719 7.20312 35.1406 7.26562 35.1406H9.98438C10.0469 35.1406 10.0781 35.1719 10.0781 35.2344V36.3477C10.0781 37.2461 9.86719 38.0664 9.44531 38.8086C9.01562 39.543 8.44922 40.1328 7.74609 40.5781C7.04297 41.0156 6.25 41.2344 5.36719 41.2344ZM16.2656 41.2344C15.4141 41.2344 14.6289 41.0156 13.9102 40.5781C13.1992 40.1406 12.625 39.5586 12.1875 38.832C11.7578 38.0977 11.543 37.293 11.543 36.418L11.5664 28.8125C11.5664 27.9219 11.7812 27.1211 12.2109 26.4102C12.6328 25.6914 13.2031 25.1172 13.9219 24.6875C14.6406 24.25 15.4219 24.0312 16.2656 24.0312C17.1406 24.0312 17.9258 24.2461 18.6211 24.6758C19.3242 25.1055 19.8867 25.6836 20.3086 26.4102C20.7383 27.1289 20.9531 27.9297 20.9531 28.8125L20.9766 36.418C20.9766 37.293 20.7656 38.0938 20.3438 38.8203C19.9141 39.5547 19.3438 40.1406 18.6328 40.5781C17.9219 41.0156 17.1328 41.2344 16.2656 41.2344ZM16.2656 38.3398C16.75 38.3398 17.1719 38.1445 17.5312 37.7539C17.8906 37.3555 18.0703 36.9102 18.0703 36.418L18.0469 28.8125C18.0469 28.2812 17.8789 27.832 17.543 27.4648C17.207 27.0977 16.7812 26.9141 16.2656 26.9141C15.7734 26.9141 15.3516 27.0938 15 27.4531C14.6484 27.8125 14.4727 28.2656 14.4727 28.8125V36.418C14.4727 36.9414 14.6484 37.3945 15 37.7773C15.3516 38.1523 15.7734 38.3398 16.2656 38.3398ZM27.2109 40.9766L22.9102 41C22.832 41 22.793 40.9609 22.793 40.8828L22.8398 24.3945C22.8398 24.332 22.8711 24.3008 22.9336 24.3008L27.4219 24.2773C28.3125 24.2539 29.1172 24.457 29.8359 24.8867C30.5625 25.3164 31.1406 25.8984 31.5703 26.6328C32.0078 27.3594 32.2266 28.1641 32.2266 29.0469V35.9375C32.2266 36.8594 32.0039 37.7031 31.5586 38.4688C31.1055 39.2266 30.5039 39.832 29.7539 40.2852C29.0039 40.7305 28.1562 40.9609 27.2109 40.9766ZM27.4219 27.1484L25.7461 27.1719L25.7227 38.0469H27.2109C27.8047 38.0469 28.3047 37.8398 28.7109 37.4258C29.1172 37.0117 29.3203 36.5156 29.3203 35.9375V29.0234C29.3203 28.5156 29.1328 28.0742 28.7578 27.6992C28.3828 27.3164 27.9375 27.1328 27.4219 27.1484ZM41.9648 41H34.207C34.1445 41 34.1133 40.9609 34.1133 40.8828L34.1367 24.3945C34.1367 24.332 34.168 24.3008 34.2305 24.3008H41.9414C42.0039 24.3008 42.0352 24.3398 42.0352 24.418V27.1016C42.0352 27.1641 42.0039 27.1953 41.9414 27.1953H37.0195V30.9453H41.9414C42.0039 30.9453 42.0352 30.9766 42.0352 31.0391L42.0586 33.7578C42.0586 33.8203 42.0273 33.8516 41.9648 33.8516H37.0195V38.0469H41.9648C42.0273 38.0469 42.0586 38.0859 42.0586 38.1641V40.9062C42.0586 40.9688 42.0273 41 41.9648 41ZM48.2695 41.2344C47.418 41.2344 46.6328 41.0156 45.9141 40.5781C45.2031 40.1406 44.6328 39.5586 44.2031 38.832C43.7812 38.0977 43.5703 37.293 43.5703 36.418V35.3164C43.5703 35.2305 43.6094 35.1875 43.6875 35.1875H46.3828C46.4453 35.1875 46.4766 35.2305 46.4766 35.3164V36.418C46.4766 36.9414 46.6523 37.3945 47.0039 37.7773C47.3555 38.1523 47.7773 38.3398 48.2695 38.3398C48.7695 38.3398 49.1953 38.1484 49.5469 37.7656C49.8984 37.375 50.0742 36.9258 50.0742 36.418C50.0742 35.832 49.6914 35.3203 48.9258 34.8828C48.8008 34.8047 48.6367 34.7109 48.4336 34.6016C48.2383 34.4844 48.0039 34.3516 47.7305 34.2031C47.457 34.0547 47.1914 33.9102 46.9336 33.7695C46.6758 33.6211 46.4258 33.4805 46.1836 33.3477C45.3086 32.832 44.6562 32.1875 44.2266 31.4141C43.8047 30.6328 43.5938 29.7578 43.5938 28.7891C43.5938 27.8984 43.8125 27.0938 44.25 26.375C44.6875 25.6641 45.2578 25.1016 45.9609 24.6875C46.6719 24.2656 47.4414 24.0547 48.2695 24.0547C49.1211 24.0547 49.9023 24.2656 50.6133 24.6875C51.3242 25.1172 51.8906 25.6875 52.3125 26.3984C52.7422 27.1094 52.957 27.9062 52.957 28.7891V30.7578C52.957 30.8203 52.9258 30.8516 52.8633 30.8516H50.168C50.1055 30.8516 50.0742 30.8203 50.0742 30.7578L50.0508 28.7891C50.0508 28.2266 49.875 27.7695 49.5234 27.418C49.1719 27.0664 48.7539 26.8906 48.2695 26.8906C47.7773 26.8906 47.3555 27.0781 47.0039 27.4531C46.6523 27.8281 46.4766 28.2734 46.4766 28.7891C46.4766 29.3125 46.5859 29.75 46.8047 30.1016C47.0312 30.4531 47.4414 30.7891 48.0352 31.1094C48.0977 31.1406 48.2422 31.2188 48.4688 31.3438C48.6953 31.4688 48.9453 31.6094 49.2188 31.7656C49.5 31.9141 49.7539 32.0508 49.9805 32.1758C50.207 32.293 50.3438 32.3633 50.3906 32.3867C51.1875 32.832 51.8164 33.3789 52.2773 34.0273C52.7461 34.6758 52.9805 35.4727 52.9805 36.418C52.9805 37.332 52.7695 38.1523 52.3477 38.8789C51.918 39.6055 51.3477 40.1797 50.6367 40.6016C49.9258 41.0234 49.1367 41.2344 48.2695 41.2344Z" fill="white"/>
<path d="M86.7129 2.35402C86.7129 3.65411 85.6579 6.12045 84.3565 6.12045C83.055 6.12045 82 3.65411 82 2.35402C82 1.05393 83.055 0 84.3565 0C85.6579 0 86.7129 1.05393 86.7129 2.35402Z" fill="white"/>
<path d="M100.713 2.35402C100.713 3.65411 99.6579 6.12045 98.3565 6.12045C97.055 6.12045 96 3.65411 96 2.35402C96 1.05393 97.055 0 98.3565 0C99.6579 0 100.713 1.05393 100.713 2.35402Z" fill="white"/>
<path d="M113.129 33.3761C111.282 33.4022 109.502 32.7277 108.181 31.501C106.859 30.2744 106.105 28.5961 106.083 26.8353C106.061 25.0745 106.773 23.3756 108.064 22.1121C109.354 20.8486 111.117 20.1242 112.964 20.0982L113.046 26.7372L113.129 33.3761Z" fill="white"/>
<path d="M69.1734 20.4343C71.0353 20.4316 72.8219 21.1555 74.14 22.447C75.4582 23.7384 76.2001 25.4916 76.2024 27.3207C76.2047 29.1498 75.4673 30.9052 74.1524 32.2005C72.8375 33.4959 71.0528 34.2251 69.191 34.2279L69.1822 27.3311L69.1734 20.4343Z" fill="white"/>
<path d="M67.775 42.9891C66.3627 42.9906 64.964 42.7001 63.6586 42.1342C62.3533 41.5683 61.167 40.7381 60.1674 39.691C59.1678 38.6438 58.3745 37.4003 57.8328 36.0313C57.2911 34.6624 57.0116 33.1949 57.0103 31.7125C57.0089 30.2302 57.2858 28.762 57.825 27.3919C58.3642 26.0219 59.1553 24.7766 60.153 23.7274C61.1507 22.6782 62.3355 21.8455 63.6398 21.2768C64.944 20.7082 66.3422 20.4147 67.7546 20.4132L67.7648 31.7011L67.775 42.9891Z" fill="white"/>
<path d="M113.779 20.13C115.195 20.1129 116.6 20.3768 117.913 20.9065C119.227 21.4363 120.424 22.2215 121.436 23.2174C122.448 24.2133 123.256 25.4004 123.812 26.7109C124.368 28.0214 124.662 29.4296 124.678 30.8551C124.694 32.2806 124.43 33.6956 123.903 35.0191C123.376 36.3427 122.595 37.549 121.605 38.5691C120.615 39.5892 119.436 40.4031 118.134 40.9644C116.832 41.5257 115.433 41.8234 114.018 41.8405L113.899 30.9853L113.779 20.13Z" fill="white"/>
<path d="M108.253 16.1641C108.253 24.5714 100.538 31.3868 91.0213 31.3868C81.5046 31.3868 73.7897 24.5714 73.7897 16.1641C73.7897 7.75689 81.5046 5.96338 91.0213 5.96338C100.538 5.96338 108.253 7.75689 108.253 16.1641Z" fill="white"/>
</svg>
